<svg id="Layer_1" data-name="Layer 1" xmlns="http://www.w3.org/2000/svg" viewBox="0 0 1000 1000"><defs><style>.cls-1{fill:#ea5959;}.cls-2{fill:#fff;}</style></defs><title>eande</title><rect class="cls-1" width="1000" height="1000"/><path class="cls-2" d="M679.82,684.46q8.29,0,29-12.44l6.9-4.14L733,693.44q-55.93,53.85-107.73,53.86t-89.09-51.11q-61.48,52.5-138.12,52.49-60.09,0-95.65-30.73t-35.56-84.6q0-98.74,129.14-167.81-29.72-57.32-29.7-98.07,0-55.25,40.06-86T501,250.76q54.54,0,80.45,23.14t25.9,54.21q0,58-102.21,128.45a1317.7,1317.7,0,0,0,71.83,120.85Q592.8,556,611.8,521.82t22.45-39.71q38,5.53,48.34,23.48-7.61,9.68-33.5,49t-42.47,60.09Q661.16,684.46,679.82,684.46ZM364.91,616.78q0,38,17.26,57.66t42.13,19.68q24.87,0,43.51-9t27.62-18l9-9Q441.56,558.77,416,505.59,364.91,546.35,364.91,616.78ZM531,374.72a79.55,79.55,0,0,0,11.39-19,60.55,60.55,0,0,0,4.84-24.51q0-13.47-11.4-23.83T503.72,297a62.67,62.67,0,0,0-36.94,11.4q-16.25,11.38-16.24,37.29t29.7,71.47q9.66-6.88,18-12.43A142.33,142.33,0,0,0,515.46,391,167.6,167.6,0,0,0,531,374.72Z"/></svg>