<?xml version="1.0" encoding="utf-8"?>
<!-- Generator: Adobe Illustrator 22.0.1, SVG Export Plug-In . SVG Version: 6.00 Build 0)  -->
<svg version="1.1" id="Layer_1" xmlns="http://www.w3.org/2000/svg" xmlns:xlink="http://www.w3.org/1999/xlink" x="0px" y="0px"
	 viewBox="0 0 1000 1000" style="enable-background:new 0 0 1000 1000;" xml:space="preserve">
<style type="text/css">
	.st0{fill:none;stroke:#FFFFFF;stroke-width:48;stroke-miterlimit:10;}
	.st1{fill:#FFFFFF;}
</style>
<title>loader</title>
<path class="st0" d="M922,522.2L517.5,926.7c-9.7,9.7-25.3,9.7-35,0L78.3,522.5c-9.7-9.7-9.7-25.3,0-35L482.8,83
	c9.7-9.7,25.3-9.7,35,0L922,487.2C931.6,496.9,931.6,512.5,922,522.2z"/>
<path class="st1" d="M517.8,456.5h-78.9l-9,51.3h93.3l-6.9,39.8H372.6L409.8,333h144l-6.9,40h-93.5l-8,45.3h79L517.8,456.5z"/>
<path class="st1" d="M597.1,636.9h-80.9l-14.9,85.5h-50.4L488,507.7h139.7l-6.9,39.9h-89l-8.5,49.4h80.9L597.1,636.9z"/>
</svg>
